{
  "accessors": [
    {
      "bufferView": 2,
      "componentType": 5126,
      "count": 840,
      "max": [
        1.8315980434417725,
        3.1322619915008545,
        0.04428499937057495
      ],
      "min": [
        -1.8213499784469604,
        -3.117142915725708,
        -0.009951000101864338
      ],
      "type": "VEC3"
    },
    {
      "bufferView": 2,
      "byteOffset": 10080,
      "componentType": 5126,
      "count": 840,
      "max": [
        0.7284496426582336,
        0.6872665882110596,
        1.0
      ],
      "min": [
        -0.7226305603981018,
        -0.7361139059066772,
        -1.0
      ],
      "type": "VEC3"
    },
    {
      "bufferView": 3,
      "componentType": 5126,
      "count": 840,
      "max": [
        1.0,
        0.7046767473220825,
        0.7265522480010986,
        1.0
      ],
      "min": [
        -0.8161686658859253,
        -0.7066590189933777,
        -0.8157477974891663,
        -1.0
      ],
      "type": "VEC4"
    },
    {
      "bufferView": 1,
      "componentType": 5126,
      "count": 840,
      "max": [
        0.787542998790741,
        0.9601330161094666
      ],
      "min": [
        0.25096699595451355,
        0.03657900169491768
      ],
      "type": "VEC2"
    },
    {
      "bufferView": 0,
      "componentType": 5125,
      "count": 4992,
      "type": "SCALAR"
    },
    {
      "bufferView": 2,
      "byteOffset": 20160,
      "componentType": 5126,
      "count": 2348,
      "max": [
        2.0305769443511963,
        3.3393290042877197,
        0.06683100014925003
      ],
      "min": [
        -2.034466028213501,
        -3.3037259578704834,
        -0.02565700002014637
      ],
      "type": "VEC3"
    },
    {
      "bufferView": 2,
      "byteOffset": 48336,
      "componentType": 5126,
      "count": 2348,
      "max": [
        0.999980092048645,
        0.9999024868011475,
        0.9999932050704956
      ],
      "min": [
        -0.9999954700469971,
        -0.9999643564224243,
        -0.9999985694885254
      ],
      "type": "VEC3"
    },
    {
      "bufferView": 3,
      "byteOffset": 13440,
      "componentType": 5126,
      "count": 2348,
      "max": [
        1.0,
        1.0,
        0.9990336894989014,
        1.0
      ],
      "min": [
        -0.7609986066818237,
        -0.847552478313446,
        -0.9993553161621094,
        -1.0
      ],
      "type": "VEC4"
    },
    {
      "bufferView": 1,
      "byteOffset": 6720,
      "componentType": 5126,
      "count": 2348,
      "max": [
        0.9998490214347839,
        0.3524940013885498
      ],
      "min": [
        0.00015100000018719584,
        0.00015100000018719584
      ],
      "type": "VEC2"
    },
    {
      "bufferView": 0,
      "byteOffset": 19968,
      "componentType": 5125,
      "count": 12432,
      "type": "SCALAR"
    }
  ],
  "asset": {
    "extras": {
      "author": "zeg.ai (https://sketchfab.com/zeg.ai)",
      "license": "CC-BY-4.0 (http://creativecommons.org/licenses/by/4.0/)",
      "source": "https://sketchfab.com/3d-models/rug-fb0a0301abf6431485b70e497aa3f5bc",
      "title": "Rug"
    },
    "generator": "Sketchfab-12.66.0",
    "version": "2.0"
  },
  "bufferViews": [
    {
      "buffer": 0,
      "byteLength": 69696,
      "name": "floatBufferViews",
      "target": 34963
    },
    {
      "buffer": 0,
      "byteLength": 25504,
      "byteOffset": 69696,
      "byteStride": 8,
      "name": "floatBufferViews",
      "target": 34962
    },
    {
      "buffer": 0,
      "byteLength": 76512,
      "byteOffset": 95200,
      "byteStride": 12,
      "name": "floatBufferViews",
      "target": 34962
    },
    {
      "buffer": 0,
      "byteLength": 51008,
      "byteOffset": 171712,
      "byteStride": 16,
      "name": "floatBufferViews",
      "target": 34962
    }
  ],
  "buffers": [
    {
      "byteLength": 222720,
      "uri": "scene.bin"
    }
  ],
  "images": [
    {
      "uri": "textures/Rug_center_baseColor.png"
    },
    {
      "uri": "textures/Rug_center_metallicRoughness.png"
    },
    {
      "uri": "textures/Rug_center_normal.png"
    },
    {
      "uri": "textures/Rug_outer_mat_baseColor.png"
    },
    {
      "uri": "textures/Rug_outer_mat_normal.png"
    }
  ],
  "materials": [
    {
      "doubleSided": true,
      "name": "Rug_center",
      "normalTexture": {
        "index": 2,
        "scale": 0.9712271341
      },
      "pbrMetallicRoughness": {
        "baseColorTexture": {
          "index": 0
        },
        "metallicRoughnessTexture": {
          "index": 1
        },
        "roughnessFactor": 0.6236661585
      }
    },
    {
      "doubleSided": true,
      "name": "Rug_outer_mat",
      "normalTexture": {
        "index": 4,
        "scale": 0.4651295732
      },
      "pbrMetallicRoughness": {
        "baseColorTexture": {
          "index": 3
        },
        "metallicRoughnessTexture": {
          "index": 1
        }
      }
    }
  ],
  "meshes": [
    {
      "name": "Object_0",
      "primitives": [
        {
          "attributes": {
            "NORMAL": 1,
            "POSITION": 0,
            "TANGENT": 2,
            "TEXCOORD_0": 3
          },
          "indices": 4,
          "material": 0,
          "mode": 4
        }
      ]
    },
    {
      "name": "Object_1",
      "primitives": [
        {
          "attributes": {
            "NORMAL": 6,
            "POSITION": 5,
            "TANGENT": 7,
            "TEXCOORD_0": 8
          },
          "indices": 9,
          "material": 1,
          "mode": 4
        }
      ]
    }
  ],
  "nodes": [
    {
      "children": [
        1
      ],
      "matrix": [
        1.0,
        0.0,
        0.0,
        0.0,
        0.0,
        2.220446049250313e-16,
        -1.0,
        0.0,
        0.0,
        1.0,
        2.220446049250313e-16,
        0.0,
        0.0,
        0.0,
        0.0,
        1.0
      ],
      "name": "Sketchfab_model"
    },
    {
      "children": [
        2,
        3
      ],
      "name": "ce0a01f2734f41668ddead298975495f.obj.cleaner.materialmerger.gles"
    },
    {
      "mesh": 0,
      "name": "Object_2"
    },
    {
      "mesh": 1,
      "name": "Object_3"
    }
  ],
  "samplers": [
    {
      "magFilter": 9729,
      "minFilter": 9987,
      "wrapS": 10497,
      "wrapT": 10497
    }
  ],
  "scene": 0,
  "scenes": [
    {
      "name": "Sketchfab_Scene",
      "nodes": [
        0
      ]
    }
  ],
  "textures": [
    {
      "sampler": 0,
      "source": 0
    },
    {
      "sampler": 0,
      "source": 1
    },
    {
      "sampler": 0,
      "source": 2
    },
    {
      "sampler": 0,
      "source": 3
    },
    {
      "sampler": 0,
      "source": 4
    }
  ]
}
